<?xml version="1.0" encoding="UTF-8" standalone="no"?>
<!-- Created with Inkscape (http://www.inkscape.org/) -->

<svg
   xmlns:dc="http://purl.org/dc/elements/1.1/"
   xmlns:cc="http://creativecommons.org/ns#"
   xmlns:rdf="http://www.w3.org/1999/02/22-rdf-syntax-ns#"
   xmlns:svg="http://www.w3.org/2000/svg"
   xmlns="http://www.w3.org/2000/svg"
   xmlns:sodipodi="http://sodipodi.sourceforge.net/DTD/sodipodi-0.dtd"
   xmlns:inkscape="http://www.inkscape.org/namespaces/inkscape"
   width="42"
   height="42"
   viewBox="0 0 42 42.000002"
   version="1.1"
   id="svg1858"
   inkscape:version="0.92.2 (5c3e80d, 2017-08-06)"
   sodipodi:docname="logo.svg">
  <defs
     id="defs1852">
    <clipPath
       clipPathUnits="userSpaceOnUse"
       id="clipPath928-2">
      <path
         style="color:#000000;font-style:normal;font-variant:normal;font-weight:normal;font-stretch:normal;font-size:medium;line-height:normal;font-family:sans-serif;font-variant-ligatures:normal;font-variant-position:normal;font-variant-caps:normal;font-variant-numeric:normal;font-variant-alternates:normal;font-feature-settings:normal;text-indent:0;text-align:start;text-decoration:none;text-decoration-line:none;text-decoration-style:solid;text-decoration-color:#000000;letter-spacing:normal;word-spacing:normal;text-transform:none;writing-mode:lr-tb;direction:ltr;text-orientation:mixed;dominant-baseline:auto;baseline-shift:baseline;text-anchor:start;white-space:normal;shape-padding:0;clip-rule:nonzero;display:inline;overflow:visible;visibility:visible;opacity:0.30400002;isolation:auto;mix-blend-mode:normal;color-interpolation:sRGB;color-interpolation-filters:linearRGB;solid-color:#000000;solid-opacity:1;vector-effect:none;fill:#000000;fill-opacity:1;fill-rule:nonzero;stroke:none;stroke-width:7.32895851;stroke-linecap:round;stroke-linejoin:round;stroke-miterlimit:4;stroke-dasharray:none;stroke-dashoffset:13.6062994;stroke-opacity:1;color-rendering:auto;image-rendering:auto;shape-rendering:auto;text-rendering:auto;enable-background:accumulate"
         d="m 88.630858,144.78906 c -5.660176,-0.53551 -11.39698,1.445 -15.539061,5.60742 -5.522773,5.5499 -7.152392,13.91353 -4.117187,21.13086 3.035202,7.21734 10.153071,11.9032 17.982422,11.83789 a 3.6648456,3.6648456 0 1 0 -0.06055,-7.32812 c -4.878552,0.0407 -9.27472,-2.85234 -11.166015,-7.34961 -1.891289,-4.49725 -0.8847,-9.66285 2.55664,-13.12109 3.441343,-3.45825 8.600961,-4.49034 13.107424,-2.6211 3.337308,1.38429 5.784646,4.1551 6.832031,7.47657 H 86.878906 a 3.6650351,3.6650351 0 1 0 0,7.33007 h 15.585934 a 3.6648456,3.6648456 0 0 0 3.66407,-3.65234 c 0.0269,-7.82953 -4.69367,-14.92401 -11.925784,-17.92383 -1.80803,-0.74995 -3.68554,-1.20821 -5.572268,-1.38672 z"
         id="path930-7"
         inkscape:connector-curvature="0" />
    </clipPath>
    <clipPath
       clipPathUnits="userSpaceOnUse"
       id="clipPath924-9">
      <path
         style="color:#000000;font-style:normal;font-variant:normal;font-weight:normal;font-stretch:normal;font-size:medium;line-height:normal;font-family:sans-serif;font-variant-ligatures:normal;font-variant-position:normal;font-variant-caps:normal;font-variant-numeric:normal;font-variant-alternates:normal;font-feature-settings:normal;text-indent:0;text-align:start;text-decoration:none;text-decoration-line:none;text-decoration-style:solid;text-decoration-color:#000000;letter-spacing:normal;word-spacing:normal;text-transform:none;writing-mode:lr-tb;direction:ltr;text-orientation:mixed;dominant-baseline:auto;baseline-shift:baseline;text-anchor:start;white-space:normal;shape-padding:0;clip-rule:nonzero;display:inline;overflow:visible;visibility:visible;opacity:0.30400002;isolation:auto;mix-blend-mode:normal;color-interpolation:sRGB;color-interpolation-filters:linearRGB;solid-color:#000000;solid-opacity:1;vector-effect:none;fill:#000000;fill-opacity:1;fill-rule:nonzero;stroke:none;stroke-width:7.32895851;stroke-linecap:round;stroke-linejoin:round;stroke-miterlimit:4;stroke-dasharray:none;stroke-dashoffset:13.6062994;stroke-opacity:1;color-rendering:auto;image-rendering:auto;shape-rendering:auto;text-rendering:auto;enable-background:accumulate"
         d="m 169.70643,-4.3620448 c -3.29385,4.63410154 -4.44708,10.5925745 -2.91336,16.2609318 2.04497,7.557811 8.47328,13.150918 16.24127,14.131019 7.768,0.980107 15.38501,-2.841218 19.24312,-9.65429 a 3.6648456,3.6648456 45 1 0 -6.37661,-3.61162 c -2.40403,4.2453 -7.10756,6.605973 -11.94796,5.995248 -4.84038,-0.610722 -8.81062,-4.065252 -10.08488,-8.774661 -1.27426,-4.7094152 0.41174,-9.69382045 4.28378,-12.6619122 2.86748,-2.198048 6.49074,-2.9320999 9.89091,-2.1784265 l -5.67382,9.8273564 a 3.6650351,3.6650351 0 1 0 6.34802,3.6650348 L 196.50987,-4.86118 a 3.6648456,3.6648456 45 0 0 -1.33098,-4.9993469 c -6.76713,-3.9380621 -15.27141,-3.3971691 -21.48539,1.366117 -1.55349,1.1908247 -2.88911,2.5876667 -3.98707,4.1323651 z"
         id="path926-1"
         inkscape:connector-curvature="0" />
    </clipPath>
    <clipPath
       clipPathUnits="userSpaceOnUse"
       id="clipPath920-6">
      <path
         style="color:#000000;font-style:normal;font-variant:normal;font-weight:normal;font-stretch:normal;font-size:medium;line-height:normal;font-family:sans-serif;font-variant-ligatures:normal;font-variant-position:normal;font-variant-caps:normal;font-variant-numeric:normal;font-variant-alternates:normal;font-feature-settings:normal;text-indent:0;text-align:start;text-decoration:none;text-decoration-line:none;text-decoration-style:solid;text-decoration-color:#000000;letter-spacing:normal;word-spacing:normal;text-transform:none;writing-mode:lr-tb;direction:ltr;text-orientation:mixed;dominant-baseline:auto;baseline-shift:baseline;text-anchor:start;white-space:normal;shape-padding:0;clip-rule:nonzero;display:inline;overflow:visible;visibility:visible;opacity:0.30400002;isolation:auto;mix-blend-mode:normal;color-interpolation:sRGB;color-interpolation-filters:linearRGB;solid-color:#000000;solid-opacity:1;vector-effect:none;fill:#000000;fill-opacity:1;fill-rule:nonzero;stroke:none;stroke-width:7.32895851;stroke-linecap:round;stroke-linejoin:round;stroke-miterlimit:4;stroke-dasharray:none;stroke-dashoffset:13.6062994;stroke-opacity:1;color-rendering:auto;image-rendering:auto;shape-rendering:auto;text-rendering:auto;enable-background:accumulate"
         d="m 81.075575,-149.1511 c 2.366323,5.16961 6.949897,9.14757 12.625699,10.65351 7.567736,2.00791 15.625666,-0.76262 20.358456,-6.99984 4.7328,-6.23724 5.23194,-14.74442 1.2607,-21.49218 a 3.6648456,3.6648456 0 1 0 -6.31606,3.7165 c 2.47452,4.2046 2.16716,9.45831 -0.78194,13.34485 -2.94909,3.88653 -7.92592,5.5976 -12.64152,4.34643 -4.715604,-1.25116 -8.189228,-5.20348 -8.823651,-10.04081 -0.469823,-3.58234 0.7061,-7.0872 3.058885,-9.655 l 5.673827,9.82736 a 3.6650372,3.6650372 45 1 0 6.348029,-3.66504 l -7.79297,-13.49781 a 3.6648456,3.6648456 0 0 0 -4.995054,-1.34701 c -6.794023,3.89147 -10.577738,11.52684 -9.5596,19.28995 0.254539,1.94078 0.79643,3.79588 1.585199,5.51909 z"
         id="path922-2"
         inkscape:connector-curvature="0" />
    </clipPath>
    <clipPath
       clipPathUnits="userSpaceOnUse"
       id="clipPath916-3">
      <path
         style="color:#000000;font-style:normal;font-variant:normal;font-weight:normal;font-stretch:normal;font-size:medium;line-height:normal;font-family:sans-serif;font-variant-ligatures:normal;font-variant-position:normal;font-variant-caps:normal;font-variant-numeric:normal;font-variant-alternates:normal;font-feature-settings:normal;text-indent:0;text-align:start;text-decoration:none;text-decoration-line:none;text-decoration-style:solid;text-decoration-color:#000000;letter-spacing:normal;word-spacing:normal;text-transform:none;writing-mode:lr-tb;direction:ltr;text-orientation:mixed;dominant-baseline:auto;baseline-shift:baseline;text-anchor:start;white-space:normal;shape-padding:0;clip-rule:nonzero;display:inline;overflow:visible;visibility:visible;opacity:0.30400002;isolation:auto;mix-blend-mode:normal;color-interpolation:sRGB;color-interpolation-filters:linearRGB;solid-color:#000000;solid-opacity:1;vector-effect:none;fill:#000000;fill-opacity:1;fill-rule:nonzero;stroke:none;stroke-width:7.32895851;stroke-linecap:round;stroke-linejoin:round;stroke-miterlimit:4;stroke-dasharray:none;stroke-dashoffset:13.6062994;stroke-opacity:1;color-rendering:auto;image-rendering:auto;shape-rendering:auto;text-rendering:auto;enable-background:accumulate"
         d="m -88.630858,-144.78906 c 5.660176,0.53551 11.39698,-1.445 15.539061,-5.60742 5.522773,-5.5499 7.152392,-13.91353 4.117187,-21.13086 -3.035202,-7.21734 -10.153071,-11.9032 -17.982422,-11.83789 a 3.6648456,3.6648456 0 1 0 0.06055,7.32812 c 4.878552,-0.0407 9.27472,2.85234 11.166015,7.34961 1.891289,4.49725 0.8847,9.66285 -2.55664,13.12109 -3.441343,3.45825 -8.600961,4.49034 -13.107424,2.6211 -3.337308,-1.38429 -5.784646,-4.1551 -6.832031,-7.47657 h 11.347654 a 3.6650351,3.6650351 0 1 0 0,-7.33007 h -15.585932 a 3.6648456,3.6648456 0 0 0 -3.66407,3.65234 c -0.0269,7.82953 4.69367,14.92401 11.925782,17.92383 1.80803,0.74995 3.68554,1.20821 5.572268,1.38672 z"
         id="path918-5"
         inkscape:connector-curvature="0" />
    </clipPath>
    <clipPath
       clipPathUnits="userSpaceOnUse"
       id="clipPath912-7">
      <path
         style="color:#000000;font-style:normal;font-variant:normal;font-weight:normal;font-stretch:normal;font-size:medium;line-height:normal;font-family:sans-serif;font-variant-ligatures:normal;font-variant-position:normal;font-variant-caps:normal;font-variant-numeric:normal;font-variant-alternates:normal;font-feature-settings:normal;text-indent:0;text-align:start;text-decoration:none;text-decoration-line:none;text-decoration-style:solid;text-decoration-color:#000000;letter-spacing:normal;word-spacing:normal;text-transform:none;writing-mode:lr-tb;direction:ltr;text-orientation:mixed;dominant-baseline:auto;baseline-shift:baseline;text-anchor:start;white-space:normal;shape-padding:0;clip-rule:nonzero;display:inline;overflow:visible;visibility:visible;opacity:0.30400002;isolation:auto;mix-blend-mode:normal;color-interpolation:sRGB;color-interpolation-filters:linearRGB;solid-color:#000000;solid-opacity:1;vector-effect:none;fill:#000000;fill-opacity:1;fill-rule:nonzero;stroke:none;stroke-width:7.32895851;stroke-linecap:round;stroke-linejoin:round;stroke-miterlimit:4;stroke-dasharray:none;stroke-dashoffset:13.6062994;stroke-opacity:1;color-rendering:auto;image-rendering:auto;shape-rendering:auto;text-rendering:auto;enable-background:accumulate"
         d="m -169.70643,4.3620448 c 3.29385,-4.63410154 4.44708,-10.5925745 2.91336,-16.2609318 -2.04497,-7.557811 -8.47328,-13.150918 -16.24127,-14.131019 -7.768,-0.980107 -15.38501,2.841218 -19.24312,9.65429 a 3.6648456,3.6648456 0 1 0 6.37661,3.61162 c 2.40403,-4.2453 7.10756,-6.605973 11.94796,-5.995248 4.84038,0.610722 8.81062,4.065252 10.08488,8.774661 1.27426,4.7094152 -0.41174,9.69382045 -4.28378,12.6619122 -2.86748,2.198048 -6.49074,2.9320999 -9.89091,2.1784265 l 5.67382,-9.8273564 a 3.6650351,3.6650351 45 1 0 -6.34802,-3.6650348 L -196.50987,4.86118 a 3.6648456,3.6648456 0 0 0 1.33098,4.9993469 c 6.76713,3.9380621 15.27141,3.3971691 21.48539,-1.366117 1.55349,-1.1908247 2.88911,-2.5876667 3.98707,-4.1323651 z"
         id="path914-5"
         inkscape:connector-curvature="0" />
    </clipPath>
    <clipPath
       clipPathUnits="userSpaceOnUse"
       id="clipPath908-3">
      <path
         style="color:#000000;font-style:normal;font-variant:normal;font-weight:normal;font-stretch:normal;font-size:medium;line-height:normal;font-family:sans-serif;font-variant-ligatures:normal;font-variant-position:normal;font-variant-caps:normal;font-variant-numeric:normal;font-variant-alternates:normal;font-feature-settings:normal;text-indent:0;text-align:start;text-decoration:none;text-decoration-line:none;text-decoration-style:solid;text-decoration-color:#000000;letter-spacing:normal;word-spacing:normal;text-transform:none;writing-mode:lr-tb;direction:ltr;text-orientation:mixed;dominant-baseline:auto;baseline-shift:baseline;text-anchor:start;white-space:normal;shape-padding:0;clip-rule:nonzero;display:inline;overflow:visible;visibility:visible;opacity:0.30400002;isolation:auto;mix-blend-mode:normal;color-interpolation:sRGB;color-interpolation-filters:linearRGB;solid-color:#000000;solid-opacity:1;vector-effect:none;fill:#000000;fill-opacity:1;fill-rule:nonzero;stroke:none;stroke-width:7.32895851;stroke-linecap:round;stroke-linejoin:round;stroke-miterlimit:4;stroke-dasharray:none;stroke-dashoffset:13.6062994;stroke-opacity:1;color-rendering:auto;image-rendering:auto;shape-rendering:auto;text-rendering:auto;enable-background:accumulate"
         d="m -81.075575,149.1511 c -2.366323,-5.16961 -6.949897,-9.14757 -12.625699,-10.65351 -7.567736,-2.00791 -15.625666,0.76262 -20.358456,6.99984 -4.7328,6.23724 -5.23194,14.74442 -1.2607,21.49218 a 3.6648456,3.6648456 45 1 0 6.31606,-3.7165 c -2.47452,-4.2046 -2.16716,-9.45831 0.78194,-13.34485 2.94909,-3.88653 7.92592,-5.5976 12.64152,-4.34643 4.715604,1.25116 8.189228,5.20348 8.823651,10.04081 0.469823,3.58234 -0.7061,7.0872 -3.058885,9.655 l -5.673827,-9.82736 a 3.6650372,3.6650372 0 1 0 -6.348029,3.66504 l 7.79297,13.49781 a 3.6648456,3.6648456 45 0 0 4.995054,1.34701 c 6.794023,-3.89147 10.577738,-11.52684 9.5596,-19.28995 -0.254539,-1.94078 -0.79643,-3.79588 -1.585199,-5.51909 z"
         id="path910-6"
         inkscape:connector-curvature="0" />
    </clipPath>
  </defs>
  <sodipodi:namedview
     id="base"
     pagecolor="#ffffff"
     bordercolor="#666666"
     borderopacity="1.0"
     inkscape:pageopacity="0.0"
     inkscape:pageshadow="2"
     inkscape:zoom="8"
     inkscape:cx="28.280555"
     inkscape:cy="34.21783"
     inkscape:document-units="px"
     inkscape:current-layer="layer1"
     showgrid="false"
     units="px"
     inkscape:window-width="1920"
     inkscape:window-height="1016"
     inkscape:window-x="0"
     inkscape:window-y="27"
     inkscape:window-maximized="1" />
  <metadata
     id="metadata1855">
    <rdf:RDF>
      <cc:Work
         rdf:about="">
        <dc:format>image/svg+xml</dc:format>
        <dc:type
           rdf:resource="http://purl.org/dc/dcmitype/StillImage" />
        <dc:title></dc:title>
      </cc:Work>
    </rdf:RDF>
  </metadata>
  <g
     inkscape:label="Layer 1"
     inkscape:groupmode="layer"
     id="layer1"
     transform="translate(0,-1080.5197)">
    <g
       id="g1270"
       transform="matrix(1.0682079,0,0,1.0682079,513.67789,1099.9803)">
      <path
         transform="translate(-547.91761,-162.47656)"
         style="opacity:1;fill:#f49138;fill-opacity:1;fill-rule:nonzero;stroke:none;stroke-width:7.32895851;stroke-linecap:round;stroke-linejoin:round;stroke-miterlimit:4;stroke-dasharray:none;stroke-dashoffset:13.6062994;stroke-opacity:1"
         id="path1184-9"
         sodipodi:type="arc"
         sodipodi:cx="86.878677"
         sodipodi:cy="164.08722"
         sodipodi:rx="20.926838"
         sodipodi:ry="20.926838"
         sodipodi:start="4.4505896"
         sodipodi:end="5.4977871"
         d="m 81.462413,143.87345 a 20.926838,20.926838 0 0 1 20.213777,5.41626 l -14.797513,14.79751 z"
         inkscape:transform-center-x="-4.6906205"
         inkscape:transform-center-y="-10.46343"
         clip-path="url(#clipPath928-2)" />
      <path
         inkscape:transform-center-y="-4.6906321"
         inkscape:transform-center-x="-10.463426"
         d="m 180.12678,-13.409312 a 20.926838,20.926838 0 0 1 20.21377,5.4162634 L 185.54305,6.804461 Z"
         sodipodi:end="5.4977871"
         sodipodi:start="4.4505896"
         sodipodi:ry="20.926838"
         sodipodi:rx="20.926838"
         sodipodi:cy="6.804461"
         sodipodi:cx="185.54305"
         sodipodi:type="arc"
         id="path1186-3"
         style="opacity:1;fill:#ee6954;fill-opacity:1;fill-rule:nonzero;stroke:none;stroke-width:7.32895851;stroke-linecap:round;stroke-linejoin:round;stroke-miterlimit:4;stroke-dasharray:none;stroke-dashoffset:13.6062994;stroke-opacity:1"
         transform="rotate(60,-133.24997,-555.74885)"
         clip-path="url(#clipPath924-9)" />
      <path
         transform="rotate(120,-227.05585,-239.40848)"
         style="opacity:1;fill:#020f16;fill-opacity:1;fill-rule:nonzero;stroke:none;stroke-width:7.32895851;stroke-linecap:round;stroke-linejoin:round;stroke-miterlimit:4;stroke-dasharray:none;stroke-dashoffset:13.6062994;stroke-opacity:1"
         id="path1188-6"
         sodipodi:type="arc"
         sodipodi:cx="98.664368"
         sodipodi:cy="-157.28278"
         sodipodi:rx="20.926838"
         sodipodi:ry="20.926838"
         sodipodi:start="4.4505896"
         sodipodi:end="5.4977871"
         d="m 93.248104,-177.49655 a 20.926838,20.926838 0 0 1 20.213776,5.41626 l -14.797512,14.79751 z"
         inkscape:transform-center-x="-10.106903"
         inkscape:transform-center-y="10.106893"
         clip-path="url(#clipPath920-6)" />
      <path
         inkscape:transform-center-y="10.463438"
         inkscape:transform-center-x="4.6906164"
         d="m -92.294949,-184.30102 a 20.926838,20.926838 0 0 1 20.213772,5.41626 l -14.797508,14.79751 z"
         sodipodi:end="5.4977871"
         sodipodi:start="4.4505896"
         sodipodi:ry="20.926838"
         sodipodi:rx="20.926838"
         sodipodi:cy="-164.08725"
         sodipodi:cx="-86.878685"
         sodipodi:type="arc"
         id="path1190-0"
         style="opacity:1;fill:#182f70;fill-opacity:1;fill-rule:nonzero;stroke:none;stroke-width:7.32895851;stroke-linecap:round;stroke-linejoin:round;stroke-miterlimit:4;stroke-dasharray:none;stroke-dashoffset:13.6062994;stroke-opacity:1"
         transform="rotate(180,-273.9588,-81.238294)"
         clip-path="url(#clipPath916-3)" />
      <path
         transform="rotate(-120,-320.86175,76.931907)"
         style="opacity:1;fill:#b1d585;fill-opacity:1;fill-rule:nonzero;stroke:none;stroke-width:7.32895851;stroke-linecap:round;stroke-linejoin:round;stroke-miterlimit:4;stroke-dasharray:none;stroke-dashoffset:13.6062994;stroke-opacity:1"
         id="path1192-6"
         sodipodi:type="arc"
         sodipodi:cx="-185.54306"
         sodipodi:cy="-6.804491"
         sodipodi:rx="20.926838"
         sodipodi:ry="20.926838"
         sodipodi:start="4.4505896"
         sodipodi:end="5.4977871"
         d="m -190.95932,-27.018264 a 20.926838,20.926838 0 0 1 20.21377,5.416263 l -14.79751,14.79751 z"
         inkscape:transform-center-x="10.46343"
         inkscape:transform-center-y="4.6906413"
         clip-path="url(#clipPath912-7)" />
      <path
         inkscape:transform-center-y="-10.106882"
         inkscape:transform-center-x="10.106904"
         d="m -104.08065,137.06897 a 20.926838,20.926838 0 0 1 20.213775,5.41627 l -14.797508,14.79751 z"
         sodipodi:end="5.4977871"
         sodipodi:start="4.4505896"
         sodipodi:ry="20.926838"
         sodipodi:rx="20.926838"
         sodipodi:cy="157.28275"
         sodipodi:cx="-98.664383"
         sodipodi:type="arc"
         id="path1194-2"
         style="opacity:1;fill:#f8cf43;fill-opacity:1;fill-rule:nonzero;stroke:none;stroke-width:7.32895851;stroke-linecap:round;stroke-linejoin:round;stroke-miterlimit:4;stroke-dasharray:none;stroke-dashoffset:13.6062994;stroke-opacity:1"
         transform="rotate(-60,-414.66763,393.27227)"
         clip-path="url(#clipPath908-3)" />
    </g>
  </g>
</svg>
