<?xml version="1.0" encoding="UTF-8"?>
<svg width="512" height="512" version="1.1" viewBox="0 0 135.46666 135.46667" xmlns="http://www.w3.org/2000/svg" xmlns:cc="http://creativecommons.org/ns#" xmlns:dc="http://purl.org/dc/elements/1.1/" xmlns:rdf="http://www.w3.org/1999/02/22-rdf-syntax-ns#">
<defs>
<clipPath id="f">
<path d="m64.775 204.08c-3.0113 0-6.0368 0.65232-8.7493 1.9797-2.583 1.264-4.8916 3.0764-6.7593 5.2643-0.0033 4e-3 -0.0065 8e-3 -0.0098 0.0114-0.29766 0.3502-0.56392 0.72433-0.83819 1.0924-0.11486-3.8582-3.2735-6.9276-7.1334-6.9319h-4.9563c-2.2024 1.2e-4 -4.2817 1.016-5.6353 2.7533l-18.245 23.419c-0.97752 1.2548-1.5084 2.7998-1.5084 4.3904v6.4813c3.97e-4 3.9452 3.1985 7.1434 7.1438 7.1438h8.7592v0.971c2.64e-4 3.9452 3.1985 7.1434 7.1438 7.1438h7.2983c3.9452-2.6e-4 7.1434-3.1985 7.1438-7.1438v-1.3777c1.3618-0.47607 2.5476-1.3532 3.4013-2.5161 1.2913 1.0678 2.6908 2.0035 4.1956 2.7399 0.03688 0.018 0.07392 0.0358 0.1111 0.0532 2.6926 1.2603 5.669 1.8722 8.6382 1.8722 2.95 0 5.9088-0.62005 8.584-1.8722 0.0195-9e-3 0.03897-0.0182 0.05839-0.0274 1.322-0.63346 2.5748-1.4111 3.7352-2.3084 1.3555 1.5641 3.3227 2.4635 5.3924 2.4655h8.7592v0.971c2.64e-4 3.9452 3.1985 7.1434 7.1438 7.1438h7.2977c3.9452-2.6e-4 7.1434-3.1985 7.1438-7.1438v-1.3777c2.8666-0.9994 4.7886-3.7012 4.7925-6.737v-6.5355c-4e-3 -3.0358-1.9259-5.7377-4.7925-6.7371v-16.627c-2.6e-4 -3.9452-3.1985-7.1434-7.1438-7.1438h-4.9558c-2.2024 1.2e-4 -4.2817 1.016-5.6353 2.7533l-9.9958 12.83c-0.19313-0.76419-0.41913-1.5182-0.68575-2.2588-0.94168-2.7467-2.3524-5.3073-4.2395-7.4853-1.8535-2.2147-4.1843-4.0331-6.7867-5.2855-2.6889-1.3113-5.6875-1.9699-8.6718-1.9699z" color="#000000" color-rendering="auto" dominant-baseline="auto" fill="#3951c0" image-rendering="auto" shape-rendering="auto" solid-color="#000000" style="font-feature-settings:normal;font-variant-alternates:normal;font-variant-caps:normal;font-variant-ligatures:normal;font-variant-numeric:normal;font-variant-position:normal;isolation:auto;mix-blend-mode:normal;shape-padding:0;text-decoration-color:#000000;text-decoration-line:none;text-decoration-style:solid;text-indent:0;text-orientation:mixed;text-transform:none;white-space:normal"/>
</clipPath>
<clipPath id="e">
<path d="m64.775 204.08c-3.0113 0-6.0368 0.65232-8.7493 1.9797-2.583 1.264-4.8916 3.0764-6.7593 5.2643-0.0033 4e-3 -0.0065 8e-3 -0.0098 0.0114-0.29766 0.3502-0.56392 0.72433-0.83819 1.0924-0.11486-3.8582-3.2735-6.9276-7.1334-6.9319h-4.9563c-2.2024 1.2e-4 -4.2817 1.016-5.6353 2.7533l-18.245 23.419c-0.97752 1.2548-1.5084 2.7998-1.5084 4.3904v6.4813c3.97e-4 3.9452 3.1985 7.1434 7.1438 7.1438h8.7592v0.971c2.64e-4 3.9452 3.1985 7.1434 7.1438 7.1438h7.2983c3.9452-2.6e-4 7.1434-3.1985 7.1438-7.1438v-1.3777c1.3618-0.47607 2.5476-1.3532 3.4013-2.5161 1.2913 1.0678 2.6908 2.0035 4.1956 2.7399 0.03688 0.018 0.07392 0.0358 0.1111 0.0532 2.6926 1.2603 5.669 1.8722 8.6382 1.8722 2.95 0 5.9088-0.62005 8.584-1.8722 0.0195-9e-3 0.03897-0.0182 0.05839-0.0274 1.322-0.63346 2.5748-1.4111 3.7352-2.3084 1.3555 1.5641 3.3227 2.4635 5.3924 2.4655h8.7592v0.971c2.64e-4 3.9452 3.1985 7.1434 7.1438 7.1438h7.2977c3.9452-2.6e-4 7.1434-3.1985 7.1438-7.1438v-1.3777c2.8666-0.9994 4.7886-3.7012 4.7925-6.737v-6.5355c-4e-3 -3.0358-1.9259-5.7377-4.7925-6.7371v-16.627c-2.6e-4 -3.9452-3.1985-7.1434-7.1438-7.1438h-4.9558c-2.2024 1.2e-4 -4.2817 1.016-5.6353 2.7533l-9.9958 12.83c-0.19313-0.76419-0.41913-1.5182-0.68575-2.2588-0.94168-2.7467-2.3524-5.3073-4.2395-7.4853-1.8535-2.2147-4.1843-4.0331-6.7867-5.2855-2.6889-1.3113-5.6875-1.9699-8.6718-1.9699z" color="#000000" color-rendering="auto" dominant-baseline="auto" fill="#3951c0" image-rendering="auto" shape-rendering="auto" solid-color="#000000" style="font-feature-settings:normal;font-variant-alternates:normal;font-variant-caps:normal;font-variant-ligatures:normal;font-variant-numeric:normal;font-variant-position:normal;isolation:auto;mix-blend-mode:normal;shape-padding:0;text-decoration-color:#000000;text-decoration-line:none;text-decoration-style:solid;text-indent:0;text-orientation:mixed;text-transform:none;white-space:normal"/>
</clipPath>
<clipPath id="d">
<path d="m64.775 204.08c-3.0113 0-6.0368 0.65232-8.7493 1.9797-2.583 1.264-4.8916 3.0764-6.7593 5.2643-0.0033 4e-3 -0.0065 8e-3 -0.0098 0.0114-0.29766 0.3502-0.56392 0.72433-0.83819 1.0924-0.11486-3.8582-3.2735-6.9276-7.1334-6.9319h-4.9563c-2.2024 1.2e-4 -4.2817 1.016-5.6353 2.7533l-18.245 23.419c-0.97752 1.2548-1.5084 2.7998-1.5084 4.3904v6.4813c3.97e-4 3.9452 3.1985 7.1434 7.1438 7.1438h8.7592v0.971c2.64e-4 3.9452 3.1985 7.1434 7.1438 7.1438h7.2983c3.9452-2.6e-4 7.1434-3.1985 7.1438-7.1438v-1.3777c1.3618-0.47607 2.5476-1.3532 3.4013-2.5161 1.2913 1.0678 2.6908 2.0035 4.1956 2.7399 0.03688 0.018 0.07392 0.0358 0.1111 0.0532 2.6926 1.2603 5.669 1.8722 8.6382 1.8722 2.95 0 5.9088-0.62005 8.584-1.8722 0.0195-9e-3 0.03897-0.0182 0.05839-0.0274 1.322-0.63346 2.5748-1.4111 3.7352-2.3084 1.3555 1.5641 3.3227 2.4635 5.3924 2.4655h8.7592v0.971c2.64e-4 3.9452 3.1985 7.1434 7.1438 7.1438h7.2977c3.9452-2.6e-4 7.1434-3.1985 7.1438-7.1438v-1.3777c2.8666-0.9994 4.7886-3.7012 4.7925-6.737v-6.5355c-4e-3 -3.0358-1.9259-5.7377-4.7925-6.7371v-16.627c-2.6e-4 -3.9452-3.1985-7.1434-7.1438-7.1438h-4.9558c-2.2024 1.2e-4 -4.2817 1.016-5.6353 2.7533l-9.9958 12.83c-0.19313-0.76419-0.41913-1.5182-0.68575-2.2588-0.94168-2.7467-2.3524-5.3073-4.2395-7.4853-1.8535-2.2147-4.1843-4.0331-6.7867-5.2855-2.6889-1.3113-5.6875-1.9699-8.6718-1.9699z" color="#000000" color-rendering="auto" dominant-baseline="auto" fill="#3951c0" image-rendering="auto" shape-rendering="auto" solid-color="#000000" style="font-feature-settings:normal;font-variant-alternates:normal;font-variant-caps:normal;font-variant-ligatures:normal;font-variant-numeric:normal;font-variant-position:normal;isolation:auto;mix-blend-mode:normal;shape-padding:0;text-decoration-color:#000000;text-decoration-line:none;text-decoration-style:solid;text-indent:0;text-orientation:mixed;text-transform:none;white-space:normal"/>
</clipPath>
<clipPath id="c">
<path d="m64.775 204.08c-3.0113 0-6.0368 0.65232-8.7493 1.9797-2.583 1.264-4.8916 3.0764-6.7593 5.2643-0.0033 4e-3 -0.0065 8e-3 -0.0098 0.0114-0.29766 0.3502-0.56392 0.72433-0.83819 1.0924-0.11486-3.8582-3.2735-6.9276-7.1334-6.9319h-4.9563c-2.2024 1.2e-4 -4.2817 1.016-5.6353 2.7533l-18.245 23.419c-0.97752 1.2548-1.5084 2.7998-1.5084 4.3904v6.4813c3.97e-4 3.9452 3.1985 7.1434 7.1438 7.1438h8.7592v0.971c2.64e-4 3.9452 3.1985 7.1434 7.1438 7.1438h7.2983c3.9452-2.6e-4 7.1434-3.1985 7.1438-7.1438v-1.3777c1.3618-0.47607 2.5476-1.3532 3.4013-2.5161 1.2913 1.0678 2.6908 2.0035 4.1956 2.7399 0.03688 0.018 0.07392 0.0358 0.1111 0.0532 2.6926 1.2603 5.669 1.8722 8.6382 1.8722 2.95 0 5.9088-0.62005 8.584-1.8722 0.0195-9e-3 0.03897-0.0182 0.05839-0.0274 1.322-0.63346 2.5748-1.4111 3.7352-2.3084 1.3555 1.5641 3.3227 2.4635 5.3924 2.4655h8.7592v0.971c2.64e-4 3.9452 3.1985 7.1434 7.1438 7.1438h7.2977c3.9452-2.6e-4 7.1434-3.1985 7.1438-7.1438v-1.3777c2.8666-0.9994 4.7886-3.7012 4.7925-6.737v-6.5355c-4e-3 -3.0358-1.9259-5.7377-4.7925-6.7371v-16.627c-2.6e-4 -3.9452-3.1985-7.1434-7.1438-7.1438h-4.9558c-2.2024 1.2e-4 -4.2817 1.016-5.6353 2.7533l-9.9958 12.83c-0.19313-0.76419-0.41913-1.5182-0.68575-2.2588-0.94168-2.7467-2.3524-5.3073-4.2395-7.4853-1.8535-2.2147-4.1843-4.0331-6.7867-5.2855-2.6889-1.3113-5.6875-1.9699-8.6718-1.9699z" color="#000000" color-rendering="auto" dominant-baseline="auto" fill="#3951c0" image-rendering="auto" shape-rendering="auto" solid-color="#000000" style="font-feature-settings:normal;font-variant-alternates:normal;font-variant-caps:normal;font-variant-ligatures:normal;font-variant-numeric:normal;font-variant-position:normal;isolation:auto;mix-blend-mode:normal;shape-padding:0;text-decoration-color:#000000;text-decoration-line:none;text-decoration-style:solid;text-indent:0;text-orientation:mixed;text-transform:none;white-space:normal"/>
</clipPath>
<clipPath id="b">
<path d="m64.775 204.08c-3.0113 0-6.0368 0.65232-8.7493 1.9797-2.583 1.264-4.8916 3.0764-6.7593 5.2643-0.0033 4e-3 -0.0065 8e-3 -0.0098 0.0114-0.29766 0.3502-0.56392 0.72433-0.83819 1.0924-0.11486-3.8582-3.2735-6.9276-7.1334-6.9319h-4.9563c-2.2024 1.2e-4 -4.2817 1.016-5.6353 2.7533l-18.245 23.419c-0.97752 1.2548-1.5084 2.7998-1.5084 4.3904v6.4813c3.97e-4 3.9452 3.1985 7.1434 7.1438 7.1438h8.7592v0.971c2.64e-4 3.9452 3.1985 7.1434 7.1438 7.1438h7.2983c3.9452-2.6e-4 7.1434-3.1985 7.1438-7.1438v-1.3777c1.3618-0.47607 2.5476-1.3532 3.4013-2.5161 1.2913 1.0678 2.6908 2.0035 4.1956 2.7399 0.03688 0.018 0.07392 0.0358 0.1111 0.0532 2.6926 1.2603 5.669 1.8722 8.6382 1.8722 2.95 0 5.9088-0.62005 8.584-1.8722 0.0195-9e-3 0.03897-0.0182 0.05839-0.0274 1.322-0.63346 2.5748-1.4111 3.7352-2.3084 1.3555 1.5641 3.3227 2.4635 5.3924 2.4655h8.7592v0.971c2.64e-4 3.9452 3.1985 7.1434 7.1438 7.1438h7.2977c3.9452-2.6e-4 7.1434-3.1985 7.1438-7.1438v-1.3777c2.8666-0.9994 4.7886-3.7012 4.7925-6.737v-6.5355c-4e-3 -3.0358-1.9259-5.7377-4.7925-6.7371v-16.627c-2.6e-4 -3.9452-3.1985-7.1434-7.1438-7.1438h-4.9558c-2.2024 1.2e-4 -4.2817 1.016-5.6353 2.7533l-9.9958 12.83c-0.19313-0.76419-0.41913-1.5182-0.68575-2.2588-0.94168-2.7467-2.3524-5.3073-4.2395-7.4853-1.8535-2.2147-4.1843-4.0331-6.7867-5.2855-2.6889-1.3113-5.6875-1.9699-8.6718-1.9699z" color="#000000" color-rendering="auto" dominant-baseline="auto" fill="#3951c0" image-rendering="auto" shape-rendering="auto" solid-color="#000000" style="font-feature-settings:normal;font-variant-alternates:normal;font-variant-caps:normal;font-variant-ligatures:normal;font-variant-numeric:normal;font-variant-position:normal;isolation:auto;mix-blend-mode:normal;shape-padding:0;text-decoration-color:#000000;text-decoration-line:none;text-decoration-style:solid;text-indent:0;text-orientation:mixed;text-transform:none;white-space:normal"/>
</clipPath>
<clipPath id="a">
<path d="m64.775 204.08c-3.0113 0-6.0368 0.65232-8.7493 1.9797-2.583 1.264-4.8916 3.0764-6.7593 5.2643-0.0033 4e-3 -0.0065 8e-3 -0.0098 0.0114-0.29766 0.3502-0.56392 0.72433-0.83819 1.0924-0.11486-3.8582-3.2735-6.9276-7.1334-6.9319h-4.9563c-2.2024 1.2e-4 -4.2817 1.016-5.6353 2.7533l-18.245 23.419c-0.97752 1.2548-1.5084 2.7998-1.5084 4.3904v6.4813c3.97e-4 3.9452 3.1985 7.1434 7.1438 7.1438h8.7592v0.971c2.64e-4 3.9452 3.1985 7.1434 7.1438 7.1438h7.2983c3.9452-2.6e-4 7.1434-3.1985 7.1438-7.1438v-1.3777c1.3618-0.47607 2.5476-1.3532 3.4013-2.5161 1.2913 1.0678 2.6908 2.0035 4.1956 2.7399 0.03688 0.018 0.07392 0.0358 0.1111 0.0532 2.6926 1.2603 5.669 1.8722 8.6382 1.8722 2.95 0 5.9088-0.62005 8.584-1.8722 0.0195-9e-3 0.03897-0.0182 0.05839-0.0274 1.322-0.63346 2.5748-1.4111 3.7352-2.3084 1.3555 1.5641 3.3227 2.4635 5.3924 2.4655h8.7592v0.971c2.64e-4 3.9452 3.1985 7.1434 7.1438 7.1438h7.2977c3.9452-2.6e-4 7.1434-3.1985 7.1438-7.1438v-1.3777c2.8666-0.9994 4.7886-3.7012 4.7925-6.737v-6.5355c-4e-3 -3.0358-1.9259-5.7377-4.7925-6.7371v-16.627c-2.6e-4 -3.9452-3.1985-7.1434-7.1438-7.1438h-4.9558c-2.2024 1.2e-4 -4.2817 1.016-5.6353 2.7533l-9.9958 12.83c-0.19313-0.76419-0.41913-1.5182-0.68575-2.2588-0.94168-2.7467-2.3524-5.3073-4.2395-7.4853-1.8535-2.2147-4.1843-4.0331-6.7867-5.2855-2.6889-1.3113-5.6875-1.9699-8.6718-1.9699z" color="#000000" color-rendering="auto" dominant-baseline="auto" fill="#3951c0" image-rendering="auto" shape-rendering="auto" solid-color="#000000" style="font-feature-settings:normal;font-variant-alternates:normal;font-variant-caps:normal;font-variant-ligatures:normal;font-variant-numeric:normal;font-variant-position:normal;isolation:auto;mix-blend-mode:normal;shape-padding:0;text-decoration-color:#000000;text-decoration-line:none;text-decoration-style:solid;text-indent:0;text-orientation:mixed;text-transform:none;white-space:normal"/>
</clipPath>
</defs>
<metadata>
<rdf:RDF>
<cc:Work rdf:about="">
<dc:format>image/svg+xml</dc:format>
<dc:type rdf:resource="http://purl.org/dc/dcmitype/StillImage"/>
<dc:title/>
</cc:Work>
</rdf:RDF>
</metadata>
<g transform="translate(0 -161.53)">
<g transform="translate(-1.0583 -1.5875)">
<path d="m70.474 202.93c-3.3272 0-6.6702 0.72077-9.6673 2.1874-2.854 1.3966-5.4048 3.3992-7.4685 5.8166-0.0036 5e-3 -0.0071 9e-3 -0.01086 0.0126-0.32889 0.38695-0.62309 0.80032-0.92613 1.207-0.12691-4.263-3.6169-7.6544-7.8818-7.6592h-5.4763c-2.4335 1.4e-4 -4.7309 1.1226-6.2266 3.0422l-20.159 25.876c-1.0801 1.3864-1.6666 3.0936-1.6667 4.8511v7.1613c4.36e-4 4.3592 3.5341 7.8928 7.8933 7.8933h9.6782v1.0729c4.34e-4 4.3592 3.5341 7.8928 7.8933 7.8933h8.064c4.3591-4.3e-4 7.8928-3.5341 7.8933-7.8933v-1.5222c1.5047-0.52602 2.8149-1.4952 3.7582-2.7801 1.4268 1.1798 2.9732 2.2137 4.6358 3.0274 0.04075 0.0199 0.08168 0.0396 0.12276 0.0587 2.9751 1.3926 6.2638 2.0687 9.5445 2.0687 3.2595 0 6.5288-0.68511 9.4846-2.0687 0.02155-0.0102 0.04306-0.0201 0.06451-0.0302 1.4607-0.69992 2.8449-1.5592 4.1271-2.5506 1.4977 1.7282 3.6713 2.722 5.9582 2.7242h9.6782v1.0729c4.35e-4 4.3591 3.5341 7.8928 7.8933 7.8933h8.0634c4.3592-4.3e-4 7.8928-3.5341 7.8933-7.8933v-1.5222c3.1673-1.1043 5.291-4.0896 5.2953-7.4439v-7.2212c-5e-3 -3.3543-2.1279-6.3396-5.2953-7.4439v-18.372c-4.3e-4 -4.3591-3.5341-7.8928-7.8933-7.8933h-5.4757c-2.4335 1.3e-4 -4.7309 1.1226-6.2266 3.0422l-11.045 14.176c-0.2134-0.84437-0.46311-1.6775-0.7577-2.4958-1.0405-3.0349-2.5992-5.8641-4.6843-8.2707-2.048-2.447-4.6233-4.4563-7.4987-5.84-2.9711-1.4489-6.2842-2.1766-9.5817-2.1766z" color="#000000" color-rendering="auto" dominant-baseline="auto" fill="#3951c0" image-rendering="auto" shape-rendering="auto" solid-color="#000000" style="font-feature-settings:normal;font-variant-alternates:normal;font-variant-caps:normal;font-variant-ligatures:normal;font-variant-numeric:normal;font-variant-position:normal;isolation:auto;mix-blend-mode:normal;shape-padding:0;text-decoration-color:#000000;text-decoration-line:none;text-decoration-style:solid;text-indent:0;text-orientation:mixed;text-transform:none;white-space:normal"/>
<rect transform="matrix(1.1049 0 0 1.1049 -3.4356 -26.068)" x="22.578" y="161.53" width="22.578" height="135.47" clip-path="url(#e)" fill="#f8cf43"/>
<rect transform="matrix(1.1049 0 0 1.1049 -3.4356 -26.068)" x="-8.8818e-16" y="161.53" width="22.578" height="135.47" clip-path="url(#f)" fill="#b1d585"/>
<rect transform="matrix(1.1049 0 0 1.1049 -3.4356 -26.068)" x="45.156" y="161.53" width="22.578" height="135.47" clip-path="url(#d)" fill="#f49138"/>
<rect transform="matrix(1.1049 0 0 1.1049 -3.4356 -26.068)" x="67.733" y="161.53" width="22.578" height="135.47" clip-path="url(#c)" fill="#ee6954"/>
<rect transform="matrix(1.1049 0 0 1.1049 -3.4356 -26.068)" x="90.311" y="161.53" width="22.578" height="135.47" clip-path="url(#b)" fill="#020f16"/>
<rect transform="matrix(1.1049 0 0 1.1049 -3.4356 -26.068)" x="112.89" y="161.53" width="22.578" height="135.47" clip-path="url(#a)" fill="#182f70"/>
<g transform="matrix(1.5044 0 0 1.5044 -153.37 -.29817)" fill="#fff" stroke-linejoin="round" stroke-width="10.494" aria-label="404">
<path d="m124.62 166.96v-5.96h-11.68v-4.76l13.4-17.2h3.64v17.16h3.52v4.8h-3.52v5.96zm-6.32-10.76h6.92v-9.04z"/>
<path d="m157.56 150.16q0 2.64-0.8 4.88-0.76 2.2-2.16 3.84-1.36 1.6-3.28 2.52-1.88 0.88-4.08 0.88-2.24 0-4.12-0.88-1.88-0.92-3.28-2.52-1.36-1.64-2.16-3.84-0.76-2.24-0.76-4.88t0.76-4.84q0.8-2.24 2.16-3.84 1.4-1.64 3.28-2.56t4.12-0.92q2.2 0 4.08 0.92 1.92 0.92 3.28 2.56 1.4 1.6 2.16 3.84 0.8 2.2 0.8 4.84zm-5.4 0q0-1.6-0.36-2.92-0.36-1.36-1.04-2.32-0.64-0.96-1.56-1.48-0.88-0.52-1.96-0.52-1.12 0-2.04 0.52-0.88 0.52-1.56 1.48-0.64 0.96-1 2.32-0.36 1.32-0.36 2.92t0.36 2.92 1 2.28q0.68 0.96 1.56 1.48 0.92 0.52 2.04 0.52 1.08 0 1.96-0.52 0.92-0.52 1.56-1.48 0.68-0.96 1.04-2.28t0.36-2.92z"/>
<path d="m171.97 166.96v-5.96h-11.68v-4.76l13.4-17.2h3.64v17.16h3.52v4.8h-3.52v5.96zm-6.32-10.76h6.92v-9.04z"/>
</g>
</g>
</g>
</svg>
